inDegrees=no
num_controls=7
num_derivatives=13
num_iterations=123
num_multipliers=7
num_parameters=0
num_slacks=7
num_states=26
objective=0.497127
objective_accelerations=0.041851
objective_balance=0.003553
objective_effort=0.039547
objective_height=0.406341
objective_ligament=0.005834
solver_duration=1410.847429
status=Solve_Succeeded
success=true
DataType=double
version=3
OpenSimVersion=4.5
endheader
time	/jointset/ground_pelvis/pelvis_tilt/value	/jointset/ground_pelvis/pelvis_tx/value	/jointset/ground_pelvis/pelvis_ty/value	/jointset/hip_r/hip_flexion_r/value	/jointset/hip_r/hip_adduction_r/value	/jointset/hip_r/hip_rotation_r/value	/jointset/back/lumbar_extension/value	/jointset/patellofemoral_r/patellar_flexion_r/value	/jointset/knee_r/knee_flexion_r/value	/jointset/knee_r/knee_adduction_r/value	/jointset/knee_r/knee_rotation_r/value	/jointset/ankle_r/ankle_angle_r/value	/jointset/subtalar_r/subtalar_angle_r/value	/jointset/ground_pelvis/pelvis_tilt/speed	/jointset/ground_pelvis/pelvis_tx/speed	/jointset/ground_pelvis/pelvis_ty/speed	/jointset/hip_r/hip_flexion_r/speed	/jointset/hip_r/hip_adduction_r/speed	/jointset/hip_r/hip_rotation_r/speed	/jointset/back/lumbar_extension/speed	/jointset/patellofemoral_r/patellar_flexion_r/speed	/jointset/knee_r/knee_flexion_r/speed	/jointset/knee_r/knee_adduction_r/speed	/jointset/knee_r/knee_rotation_r/speed	/jointset/ankle_r/ankle_angle_r/speed	/jointset/subtalar_r/subtalar_angle_r/speed	/forceset/tau_hip_flexion_r	/forceset/tau_hip_adduction_r	/forceset/tau_hip_rotation_r	/forceset/tau_knee_flexion_r	/forceset/tau_ankle_angle_r	/forceset/tau_subtalar_angle_r	/forceset/tau_lumbar_extension	lambda_cid13_p0	lambda_cid14_p0	lambda_cid14_p1	lambda_cid14_p2	lambda_cid14_p3	lambda_cid14_p4	lambda_cid14_p5	/jointset/ground_pelvis/pelvis_tilt/accel	/jointset/ground_pelvis/pelvis_tx/accel	/jointset/ground_pelvis/pelvis_ty/accel	/jointset/hip_r/hip_flexion_r/accel	/jointset/hip_r/hip_adduction_r/accel	/jointset/hip_r/hip_rotation_r/accel	/jointset/back/lumbar_extension/accel	/jointset/patellofemoral_r/patellar_flexion_r/accel	/jointset/knee_r/knee_flexion_r/accel	/jointset/knee_r/knee_adduction_r/accel	/jointset/knee_r/knee_rotation_r/accel	/jointset/ankle_r/ankle_angle_r/accel	/jointset/subtalar_r/subtalar_angle_r/accel	gamma_cid13_p0	gamma_cid14_p0	gamma_cid14_p1	gamma_cid14_p2	gamma_cid14_p3	gamma_cid14_p4	gamma_cid14_p5
1.5	-0.1458801172435882	0.04519236342266903	0.8516296646870278	0.7728535872554425	-0.2403195723222829	-0.1116433360371009	-0.2849533512473016	0.7213187736071082	0.7213187736070932	0.06537094494130968	0.1745117518237188	0.2623182966559744	0.04222290634030228	0.329679155104013	0.1533265290390142	0.4069564325596327	-1.7430711173285	0.03738209814714154	-0.4005356684831504	0.6959588205021042	-1.948332648973843	-1.948332648973777	0.1843803269911476	9.347183819424738e-05	-0.6231144774465125	-0.1147940014467259	-0.08906887442821672	-0.01877524910331633	0.01134743519264366	-0.3348136788184202	0.06496672519359788	-0.01237892235613017	0.1376952101346662	-30.11458174164439	-20.51221096270299	-5.038724714930567	-3.224562312163266	2.28339826775221	-655.4704147063878	57.24755681097709	0.159271885849635	0.3484475496158435	-0.5441036186605271	-0.8270063698903879	0.106695230329637	-0.3392338650946584	1.323891906005411	-1.123050500337777	-1.123050500337862	0.512518449105511	-0.03230612771972877	-0.5467044585957028	0.05563717921653608	1.407699680164271e-07	8.687998206316435e-08	-1.405964147234398e-06	7.375289572853911e-07	9.885464365768906e-08	1.768285228545536e-07	-1.025540388589599e-06
1.51	-0.1425756760033829	0.04674286001584805	0.8556711926250076	0.7553834362554309	-0.2399411302906466	-0.1156660661114153	-0.277928686610812	0.7017817805170592	0.7017817805170228	0.06724138644039752	0.1745124378744003	0.2560604298948079	0.04107693344003611	0.3311614366203378	0.1567502334804312	0.401265345141178	-1.750724422818922	0.03830243293579352	-0.4039852664980085	0.7088756872160697	-1.95879381694925	-1.958793816949292	0.1897066598810161	4.082842146814497e-05	-0.6283674447102172	-0.1143842590881301	-0.08293712795734207	-0.02089447849372592	0.01079984519489909	-0.331234819390636	0.0684462183603589	-0.01324072876846408	0.1320911836151928	-31.24277542556215	-19.23767421675585	-5.064630886560406	-3.363456718171578	1.84793211338154	-651.7461688291922	57.38055863079953	0.1355657087815474	0.3359702602063692	-0.5941434051228511	-0.6992834655407755	0.08410586737086616	-0.3438544253847688	1.260821117120452	-0.9668577005665465	-0.9668577005825908	0.5423045408587562	0.007947009589399949	-0.5008444089157565	0.03593814334821889	1.487342955246811e-07	8.94883313294328e-08	-1.501339619093792e-06	7.623305897965924e-07	1.055052312022433e-07	1.900842337679291e-07	-1.084717980264542e-06
1.52	-0.1392578400631629	0.04832692132720148	0.8596533032684658	0.73784379403513	-0.2395536042582754	-0.1197224984970198	-0.2707778058945773	0.6821483341963713	0.6821483341963122	0.06916501403476888	0.1745125355825638	0.2497527831512728	0.03993551703918937	0.332358095106971	0.1600394726738975	0.3950729736553197	-1.756969361386253	0.03919889829396118	-0.4072761307410014	0.7212020364511713	-1.967623295101631	-1.96762329510178	0.1950175460481348	-2.41966657196279e-05	-0.6330704739202383	-0.11388270156285	-0.07680538148647191	-0.02301370788413799	0.01025225519716389	-0.3276559599628532	0.07192571152711934	-0.01410253518080151	0.1264871570957164	-32.35307296839005	-17.9676569767967	-5.088762720730966	-3.505564970108138	1.404684863819138	-648.1001759903648	57.57004854855964	0.1021472799112857	0.3215545000257045	-0.6443604321412222	-0.5453329852721499	0.1019213442327727	-0.3074871107216162	1.205788410232595	-0.7967125357324669	-0.7967125357325223	0.5094291045555495	-0.03478246181205791	-0.4367168478590016	0.07400021255340684	1.568909986782857e-07	8.811367867972762e-08	-1.601581928295617e-06	7.77440524246554e-07	1.169760545887129e-07	1.909142315415499e-07	-1.141911685337586e-06
1.53	-0.1359295937621493	0.04994314773211277	0.8635710113676771	0.720249007996154	-0.2391572762883617	-0.12381125376352	-0.2635066420778248	0.6624349709765034	0.6624349709762983	0.07114159675601159	0.1745121430686931	0.2434009163891751	0.03879954510929281	0.3332418693532379	0.1631773834790705	0.3883905053344124	-1.76174040814606	0.04006239159572857	-0.4104504207600802	0.7329145689919214	-1.974761432710167	-1.974761432710335	0.2002913137600914	-5.426007213295378e-05	-0.6372060817204979	-0.1132950988392434	-0.07055598056442849	-0.02517406279041573	0.009671409433372954	-0.324235243806032	0.07558317485578593	-0.01514698792512175	0.1207870894666266	-33.43296667026374	-16.65875781159309	-5.197045767157757	-3.620965915376916	0.9803277489171464	-644.5919784785629	57.64165501526034	0.07410612372191056	0.3056741365937757	-0.6918767762790197	-0.405865358297674	0.07787900977466759	-0.3185045114210069	1.136561989876135	-0.6292108947922821	-0.629210894795087	0.5349797241052109	0.01301939464352456	-0.3874264630450163	0.05344351316473807	1.652521009550753e-07	8.250708649430051e-08	-1.706995252173774e-06	7.822530295064486e-07	1.335683785572175e-07	1.785419091041814e-07	-1.196997510896113e-06
1.54	-0.1325939869933259	0.05158990619824182	0.8674195574348367	0.7026139365221865	-0.2387524502481049	-0.1279309728429951	-0.256121837672889	0.6426588570762742	0.6426588570759234	0.07317064297828896	0.1745114774557006	0.2370106048056876	0.0376699098488124	0.3338301886690088	0.1661458849174512	0.3812405672449563	-1.765026448384375	0.04089851236253429	-0.4134688933359586	0.743930154087871	-1.980173431173824	-1.980173431174011	0.2055102462556284	-7.881649056640981e-05	-0.6407594381981806	-0.1126153676796192	-0.06430657964238938	-0.02733441769669579	0.009090563669596959	-0.3208145276492124	0.07924063818445191	-0.01619144066944536	0.1150870218375338	-34.4766837401286	-15.35798384719779	-5.303423260629261	-3.740472643023365	0.5564677568000722	-641.2187312930871	57.77821061302898	0.04305629381207455	0.2876726266672635	-0.7378543858509892	-0.2483316809736143	0.0964468372404404	-0.2763236220815325	1.066398921272443	-0.4514847067564767	-0.4514847067564899	0.4984620612716068	-0.03368106421607705	-0.3202665833436214	0.09242589975692954	1.73655634599331e-07	7.858850697412882e-08	-1.812382877113663e-06	7.897256993363216e-07	1.475941765976038e-07	1.733466932753178e-07	-1.25125522525311e-06
1.55	-0.1292540231872834	0.05326545462919595	0.8711943251513046	0.6849535576054804	-0.2383394623144864	-0.132080212219949	-0.2486304890378065	0.6228374063450671	0.622837406344903	0.07525163853909765	0.1745107613370991	0.2305877114277807	0.03654747240148604	0.3341109610523008	0.1689301844766229	0.3736412644311512	-1.766788526954039	0.04169175444425944	-0.4163457368637949	0.7542065121763271	-1.983811927991172	-1.983811927991192	0.2106831777274383	-6.571198984688315e-05	-0.6437164555872492	-0.1118584437621458	-0.05792526306282741	-0.0297235745851194	0.00847111648013542	-0.3176053698951717	0.08314205779537205	-0.01731454705204149	0.1092926310002235	-35.47852728052369	-13.99303166076049	-5.434834924011339	-3.85357540300366	0.1206166471778821	-638.0002744858763	57.9246283734911	0.01285340404497462	0.2687990634614488	-0.7816893460526059	-0.1010160813988285	0.06960230363046031	-0.2881430341494705	0.9882951397757876	-0.2743514685201794	-0.2743514684951886	0.5256080904999264	0.01874862611264364	-0.267961908190676	0.06916187744697282	1.821080565582757e-07	7.661481161175131e-08	-1.917740892407288e-06	8.002633413881259e-07	1.586628904164624e-07	1.76420752451905e-07	-1.304558811486606e-06
1.56	-0.1259127985187172	0.05496784414432556	0.8748909556162529	0.6672833838757891	-0.2379187740780527	-0.1362571756953839	-0.2410403686444109	0.6029887067858266	0.6029887067858516	0.07738414329469342	0.1745101647472864	0.2241383393576827	0.03543297144127528	0.3340823611738855	0.171514101752549	0.365613116941044	-1.766985410981144	0.04243857292566174	-0.4190137130322229	0.7636845057505305	-1.985623196780371	-1.985623196780224	0.215812085213819	-5.491073326043352e-05	-0.6460551766364057	-0.1110280702564957	-0.05154394648326947	-0.03211273147354528	0.007851669290692061	-0.3143962121411331	0.08704347740629144	-0.01843765343464098	0.1034982401629106	-36.4327522146473	-12.63724502863749	-5.564564144486695	-3.970701641970624	-0.3132046019562812	-634.9342344889463	58.13918893893182	-0.01881815852936804	0.2475961700181736	-0.8236233211114372	0.06470722753837577	0.08716211717586732	-0.2345501501998734	0.90672601842192	-0.08603910112671326	-0.08603910112671143	0.489657264185753	-0.03414171304268596	-0.1966073153612079	0.1071158173922696	1.90198911602765e-07	7.384160662680588e-08	-2.018693718301392e-06	8.069204100247901e-07	1.697546423871898e-07	1.773413048181193e-07	-1.35281369243357e-06
1.57	-0.1225734493579538	0.05669502168180768	0.8785052366373965	0.6496191784001163	-0.2374908676913912	-0.1404599891378487	-0.2333595630144903	0.5831311546083066	0.583131154608463	0.07956761574549098	0.1745098643651608	0.2176687082220393	0.03432714301998583	0.3337358413995201	0.1738826249208163	0.3571799062139392	-1.765585974894076	0.04313568569522992	-0.4215161953457965	0.7723274273031645	-1.985569879105061	-1.985569879104945	0.2208672395918934	-3.598777931202856e-06	-0.6477633381781819	-0.1101225398627417	-0.04509518103182486	-0.03462902704452474	0.007185925960869644	-0.3113458007087166	0.09110426374874067	-0.01968712455556669	0.0976713521482834	-37.33360625860235	-11.25084303490694	-5.749175853805496	-4.072952080594598	-0.7332939219641459	-632.0959164658606	58.30342389100278	-0.05030668016758801	0.2257007223567873	-0.8626121995486276	0.2180257043467333	0.05984430502872651	-0.2529352640110218	0.8206962841064193	0.09858069746812052	0.09858069746335164	0.5108948761128284	0.02514624686670687	-0.1417208946758593	0.084287576124636	1.978378080041852e-07	7.006901461365058e-08	-2.114140057446096e-06	8.087267618925287e-07	1.808751920477531e-07	1.755699736713674e-07	-1.394757691772369e-06
